<svg xmlns="http://www.w3.org/2000/svg" width="323.996" height="94.545" viewBox="0 0 323.996 94.545"><defs><style>.a{fill:#fff;}.b{fill:#aec820;}.c{fill:#aec81f;}.d{opacity:0.45;}.e{fill:#799b2c;}</style></defs><g transform="translate(-126.036 -67.653)"><g transform="translate(126.036 67.653)"><g transform="translate(108.866 66.692)"><path class="a" d="M328.421,201.32a3.243,3.243,0,0,0,2.151.9,1.991,1.991,0,0,0,2.024-2.167c0-2.972-4.3-2.577-4.3-5.833a2.663,2.663,0,0,1,2.83-2.8,3.66,3.66,0,0,1,2.087.648l-.268.616a3.329,3.329,0,0,0-1.85-.616,2.026,2.026,0,0,0-2.1,2.151c0,2.783,4.3,2.387,4.3,5.771a2.656,2.656,0,0,1-2.751,2.877,3.6,3.6,0,0,1-2.466-1Z" transform="translate(-328.074 -191.423)"/><path class="a" d="M343.548,197.291c1.945,0,3.194,1.787,3.194,4.111s-1.249,4.174-3.194,4.174c-1.913,0-3.178-1.834-3.178-4.174S341.635,197.291,343.548,197.291Zm0,7.669c1.566,0,2.514-1.55,2.514-3.574,0-2.008-.948-3.479-2.514-3.479-1.55,0-2.5,1.471-2.5,3.479C341.05,203.41,342,204.96,343.548,204.96Z" transform="translate(-333.744 -194.129)"/><path class="a" d="M355.632,191.775h.649v9.265c0,1.139.394,1.265.711,1.265a.64.64,0,0,0,.19-.016v.585a.884.884,0,0,1-.253.032c-.427,0-1.3-.175-1.3-1.661Z" transform="translate(-340.783 -191.585)"/><path class="a" d="M361.266,197.643h.649V203.1c0,.948.11,2.024,1.439,2.024a2.555,2.555,0,0,0,2.387-2.656v-4.823h.649v7.906h-.649v-.917a2.469,2.469,0,0,1,.047-.505h-.031a2.608,2.608,0,0,1-2.483,1.612c-1.581,0-2.008-1.076-2.008-2.467Z" transform="translate(-343.381 -194.291)"/><path class="a" d="M377.487,197.291a2.672,2.672,0,0,1,2.009.806l-.3.585a2.346,2.346,0,0,0-1.723-.775c-1.566,0-2.64,1.407-2.64,3.542,0,2.1,1.059,3.51,2.64,3.51a2.512,2.512,0,0,0,1.913-.9l.237.6a2.955,2.955,0,0,1-2.23.917c-1.849,0-3.241-1.612-3.241-4.126S375.527,197.291,377.487,197.291Z" transform="translate(-349.324 -194.129)"/><path class="a" d="M387.3,191.775h.775v1.154H387.3Zm.064,3.162h.648v7.906h-.648Z" transform="translate(-355.387 -191.585)"/><path class="a" d="M395.174,197.291c1.944,0,3.194,1.787,3.194,4.111s-1.25,4.174-3.194,4.174c-1.914,0-3.178-1.834-3.178-4.174S393.26,197.291,395.174,197.291Zm0,7.669c1.565,0,2.514-1.55,2.514-3.574,0-2.008-.949-3.479-2.514-3.479s-2.5,1.471-2.5,3.479C392.676,203.41,393.624,204.96,395.174,204.96Z" transform="translate(-357.553 -194.129)"/><path class="a" d="M407.229,197.481h.648v.917a2.691,2.691,0,0,1-.047.507h.032a2.592,2.592,0,0,1,2.529-1.613c1.566,0,2.008,1.059,2.008,2.467v5.629h-.648v-5.455c0-.948-.111-2.024-1.439-2.024a2.565,2.565,0,0,0-2.436,2.673v4.806h-.648Z" transform="translate(-364.577 -194.129)"/><path class="a" d="M423.144,197.291c1.849,0,2.529,1.739,2.529,3.479,0,.158-.016.363-.031.553h-4.791c.016,2.419,1.076,3.621,2.467,3.621a2.689,2.689,0,0,0,1.96-.87l.222.554a3.023,3.023,0,0,1-2.23.948c-1.85,0-3.1-1.612-3.1-4.206C420.171,198.825,421.389,197.291,423.144,197.291Zm1.849,3.415c-.031-1.929-.727-2.8-1.849-2.8-1.186,0-2.056.949-2.261,2.8Z" transform="translate(-370.546 -194.129)"/><path class="a" d="M433,204.185a2.646,2.646,0,0,0,1.756.775,1.408,1.408,0,0,0,1.534-1.486c0-2.119-3.336-1.471-3.336-4.08a1.981,1.981,0,0,1,2.151-2.1,2.556,2.556,0,0,1,1.628.569l-.268.569a2.4,2.4,0,0,0-1.407-.522,1.328,1.328,0,0,0-1.424,1.424c0,2.181,3.336,1.517,3.336,4.079a2.049,2.049,0,0,1-2.23,2.166,2.854,2.854,0,0,1-2.039-.854Z" transform="translate(-376.326 -194.129)"/><path class="a" d="M451.965,197.291c1.85,0,2.53,1.739,2.53,3.479,0,.158-.016.363-.032.553h-4.79c.015,2.419,1.074,3.621,2.467,3.621a2.693,2.693,0,0,0,1.96-.87l.221.554a3.022,3.022,0,0,1-2.229.948c-1.85,0-3.1-1.612-3.1-4.206C448.993,198.825,450.211,197.291,451.965,197.291Zm1.85,3.415c-.032-1.929-.727-2.8-1.85-2.8-1.185,0-2.055.949-2.261,2.8Z" transform="translate(-383.837 -194.129)"/><path class="a" d="M462.581,197.481h.648v.917a2.691,2.691,0,0,1-.047.507h.032a2.592,2.592,0,0,1,2.529-1.613c1.566,0,2.008,1.059,2.008,2.467v5.629H467.1v-5.455c0-.948-.111-2.024-1.439-2.024a2.565,2.565,0,0,0-2.436,2.673v4.806h-.648Z" transform="translate(-390.104 -194.129)"/><path class="a" d="M482.187,197.481h.648v.727a4.04,4.04,0,0,1-.047.633h.032a2.1,2.1,0,0,1,2.15-1.55c1.8,0,2.656,1.692,2.656,4.143,0,2.514-.981,4.143-2.751,4.143a2.092,2.092,0,0,1-2.056-1.423h-.032a4.377,4.377,0,0,1,.047.648v3.747h-.648Zm2.672,7.479c1.313,0,2.087-1.3,2.087-3.526,0-2.166-.68-3.526-2.04-3.526-1.3,0-2.087,1.028-2.087,3.542C482.82,203.22,483.261,204.96,484.859,204.96Z" transform="translate(-399.145 -194.129)"/><path class="a" d="M498.329,200.564h.459V200.3c0-1.867-.616-2.388-1.581-2.388a3.267,3.267,0,0,0-1.8.585l-.237-.538a3.489,3.489,0,0,1,2.04-.664c1.5,0,2.23.965,2.23,2.988v5.107h-.617v-.775c0-.427.016-.711.016-.711H498.8a2.342,2.342,0,0,1-2.087,1.628,2.085,2.085,0,0,1-2.055-2.325C494.662,200.611,497.255,200.564,498.329,200.564Zm-1.565,4.365c1.36,0,2.024-1.834,2.024-3.052v-.7h-.443c-.981,0-3,.032-3,1.976A1.583,1.583,0,0,0,496.765,204.928Z" transform="translate(-404.898 -194.129)"/><path class="a" d="M507.6,197.481h.648v.917a2.692,2.692,0,0,1-.047.507h.032a2.592,2.592,0,0,1,2.529-1.613c1.566,0,2.008,1.059,2.008,2.467v5.629h-.648v-5.455c0-.948-.111-2.024-1.439-2.024a2.565,2.565,0,0,0-2.436,2.673v4.806H507.6Z" transform="translate(-410.867 -194.129)"/><path class="a" d="M520.8,196.411h-.806v-.6h.806v-2.245h.648v2.245h1.566v.6h-1.566v4.347c0,2.087.949,2.372,1.44,2.372a.888.888,0,0,0,.268-.031v.6a1.3,1.3,0,0,1-.332.032c-.664,0-2.024-.3-2.024-2.926Z" transform="translate(-416.579 -192.411)"/><path class="a" d="M531.111,200.564h.459V200.3c0-1.867-.617-2.388-1.581-2.388a3.266,3.266,0,0,0-1.8.585l-.237-.538a3.489,3.489,0,0,1,2.04-.664c1.5,0,2.23.965,2.23,2.988v5.107H531.6v-.775c0-.427.016-.711.016-.711h-.031a2.342,2.342,0,0,1-2.088,1.628,2.085,2.085,0,0,1-2.055-2.325C527.444,200.611,530.037,200.564,531.111,200.564Zm-1.565,4.365c1.36,0,2.024-1.834,2.024-3.052v-.7h-.443c-.981,0-3,.032-3,1.976A1.583,1.583,0,0,0,529.547,204.928Z" transform="translate(-420.016 -194.129)"/><path class="a" d="M540.416,191.775h.649v9.265c0,1.139.394,1.265.711,1.265a.639.639,0,0,0,.19-.016v.585a.883.883,0,0,1-.253.032c-.427,0-1.3-.175-1.3-1.661Z" transform="translate(-425.998 -191.585)"/><path class="a" d="M546.2,191.775h.649v9.265c0,1.139.4,1.265.711,1.265a.636.636,0,0,0,.19-.016v.585a.87.87,0,0,1-.252.032c-.428,0-1.3-.175-1.3-1.661Z" transform="translate(-428.664 -191.585)"/><path class="a" d="M554.561,200.564h.459V200.3c0-1.867-.616-2.388-1.581-2.388a3.266,3.266,0,0,0-1.8.585l-.237-.538a3.489,3.489,0,0,1,2.04-.664c1.5,0,2.23.965,2.23,2.988v5.107h-.618v-.775c0-.427.016-.711.016-.711h-.031a2.342,2.342,0,0,1-2.087,1.628,2.085,2.085,0,0,1-2.055-2.325C550.894,200.611,553.487,200.564,554.561,200.564ZM553,204.928c1.36,0,2.024-1.834,2.024-3.052v-.7h-.443c-.981,0-3,.032-3,1.976A1.583,1.583,0,0,0,553,204.928Z" transform="translate(-430.83 -194.129)"/><path class="a" d="M563.08,204.185a2.646,2.646,0,0,0,1.755.775,1.408,1.408,0,0,0,1.534-1.486c0-2.119-3.337-1.471-3.337-4.08a1.981,1.981,0,0,1,2.152-2.1,2.556,2.556,0,0,1,1.628.569l-.268.569a2.4,2.4,0,0,0-1.407-.522,1.328,1.328,0,0,0-1.424,1.424c0,2.181,3.337,1.517,3.337,4.079a2.049,2.049,0,0,1-2.23,2.166,2.853,2.853,0,0,1-2.039-.854Z" transform="translate(-436.312 -194.129)"/><path class="a" d="M581.833,194.747a2.094,2.094,0,0,1,2.071,1.423h.031a4.37,4.37,0,0,1-.048-.648v-3.747h.649v11.068h-.649v-.727a4.032,4.032,0,0,1,.048-.633H583.9a2.127,2.127,0,0,1-2.151,1.55c-1.818,0-2.656-1.692-2.656-4.143C579.1,196.376,580.078,194.747,581.833,194.747Zm-.016,7.669c1.28,0,2.087-1.028,2.087-3.542,0-1.771-.474-3.51-2.04-3.51-1.313,0-2.087,1.3-2.087,3.526C579.777,201.056,580.457,202.416,581.817,202.416Z" transform="translate(-443.837 -191.585)"/><path class="a" d="M595.571,197.291c1.85,0,2.53,1.739,2.53,3.479,0,.158-.016.363-.032.553h-4.79c.015,2.419,1.074,3.621,2.467,3.621a2.693,2.693,0,0,0,1.96-.87l.221.554a3.022,3.022,0,0,1-2.229.948c-1.85,0-3.1-1.612-3.1-4.206C592.6,198.825,593.817,197.291,595.571,197.291Zm1.85,3.415c-.032-1.929-.727-2.8-1.85-2.8-1.185,0-2.055.949-2.261,2.8Z" transform="translate(-450.063 -194.129)"/><path class="a" d="M612.115,191.775h.649v9.265c0,1.139.4,1.265.711,1.265a.636.636,0,0,0,.19-.016v.585a.869.869,0,0,1-.252.032c-.428,0-1.3-.175-1.3-1.661Z" transform="translate(-459.063 -191.585)"/><path class="a" d="M619.96,197.291c1.849,0,2.529,1.739,2.529,3.479,0,.158-.016.363-.031.553h-4.791c.016,2.419,1.075,3.621,2.467,3.621a2.689,2.689,0,0,0,1.96-.87l.222.554a3.023,3.023,0,0,1-2.23.948c-1.85,0-3.1-1.612-3.1-4.206C616.987,198.825,618.2,197.291,619.96,197.291Zm1.849,3.415c-.031-1.929-.727-2.8-1.849-2.8-1.187,0-2.056.949-2.261,2.8Z" transform="translate(-461.31 -194.129)"/><path class="a" d="M632.577,194.747a2.094,2.094,0,0,1,2.071,1.423h.031a4.375,4.375,0,0,1-.047-.648v-3.747h.649v11.068h-.649v-.727a4.037,4.037,0,0,1,.047-.633h-.031a2.127,2.127,0,0,1-2.151,1.55c-1.818,0-2.656-1.692-2.656-4.143C629.841,196.376,630.822,194.747,632.577,194.747Zm-.016,7.669c1.28,0,2.087-1.028,2.087-3.542,0-1.771-.474-3.51-2.04-3.51-1.313,0-2.087,1.3-2.087,3.526C630.521,201.056,631.2,202.416,632.561,202.416Z" transform="translate(-467.238 -191.585)"/></g><g transform="translate(107.458 33.749)"><g transform="translate(0 0.001)"><path class="a" d="M335.857,130.286a9.034,9.034,0,0,1,8.206,4.463l-4.147,2.188a4.772,4.772,0,0,0-4.06-2.274,5.561,5.561,0,0,0,0,11.115,5.976,5.976,0,0,0,3.627-1.152v-1.612h-4.4V138.9h9.271v7.515a11.1,11.1,0,0,1-8.494,3.743c-5.73,0-10.4-3.83-10.4-9.934S330.127,130.286,335.857,130.286Z" transform="translate(-325.462 -130.286)"/><path class="a" d="M373.413,143.572h-2.534v6.508h-4.953V130.874h9.617c4.261,0,6.681,2.822,6.681,6.392a5.819,5.819,0,0,1-3.83,5.759l3.916,7.054h-5.673Zm1.382-8.523h-3.915v4.319h3.915a2.171,2.171,0,1,0,0-4.319Z" transform="translate(-344.123 -130.557)"/><path class="a" d="M401.258,130.874h5.04v11.258c0,2.275,1.209,3.916,3.887,3.916,2.649,0,3.858-1.641,3.858-3.916V130.874h5.039v11.4c0,4.78-2.735,8.149-8.9,8.149s-8.927-3.4-8.927-8.12Z" transform="translate(-360.416 -130.557)"/><path class="a" d="M440.761,130.874h9.617c4.319,0,6.68,2.908,6.68,6.392,0,3.456-2.361,6.306-6.68,6.306h-4.664v6.508h-4.953Zm8.954,4.175h-4v4.319h4a2.12,2.12,0,0,0,2.3-2.131A2.148,2.148,0,0,0,449.715,135.049Z" transform="translate(-378.634 -130.557)"/><path class="a" d="M483.594,130.286c5.873,0,10.25,4.089,10.25,9.934s-4.376,9.934-10.25,9.934-10.28-4.089-10.28-9.934S477.719,130.286,483.594,130.286Zm0,4.377c-3.2,0-5.241,2.419-5.241,5.557,0,3.11,2.045,5.558,5.241,5.558,3.167,0,5.212-2.447,5.212-5.558C488.805,137.082,486.761,134.663,483.594,134.663Z" transform="translate(-393.646 -130.286)"/></g><g transform="translate(109.241)"><path class="a" d="M528.2,130.873h5.039v11.258c0,2.275,1.209,3.916,3.887,3.916,2.649,0,3.858-1.641,3.858-3.916V130.873h5.039v11.4c0,4.78-2.735,8.149-8.9,8.149s-8.926-3.4-8.926-8.12Z" transform="translate(-528.196 -130.556)"/><path class="a" d="M572.33,138.475v11.6h-4.953V130.873h5.1l7.774,11.057V130.873h4.981v19.206H580.45Z" transform="translate(-546.265 -130.556)"/><path class="a" d="M615.075,130.285c5.873,0,10.25,4.089,10.25,9.934s-4.376,9.934-10.25,9.934-10.28-4.089-10.28-9.934S609.2,130.285,615.075,130.285Zm0,4.377c-3.2,0-5.241,2.419-5.241,5.557,0,3.11,2.044,5.558,5.241,5.558,3.167,0,5.212-2.447,5.212-5.558C620.287,137.081,618.242,134.662,615.075,134.662Z" transform="translate(-563.521 -130.285)"/></g><g transform="translate(179.185 0.281)"><path class="b" d="M658,130.807h1.078V148.99H665.6v1H658Z" transform="translate(-658.002 -130.807)"/><path class="b" d="M675.635,130.807h7.676v1h-6.6v7.908h5.418v1h-5.418v8.272h6.958v1h-8.036Z" transform="translate(-666.134 -130.807)"/><path class="b" d="M694.84,130.807h4.39c4.134,0,6.933,3.8,6.933,9.5,0,5.725-2.8,9.683-6.933,9.683h-4.39Zm4.262,18.157c3.543,0,5.931-3.5,5.931-8.656,0-5.136-2.388-8.474-5.931-8.474h-3.184v17.13Z" transform="translate(-674.99 -130.807)"/></g></g><path class="c" d="M126.037,113.181V138.9l29.242-21.5V91.548Z" transform="translate(-126.036 -78.672)"/><path class="c" d="M202.757,67.653,191.1,76.23v25.853L202.757,93.5Z" transform="translate(-156.042 -67.653)"/><path class="c" d="M212.731,67.653l46.907,34.226v25.874L212.731,93.5Z" transform="translate(-166.016 -67.653)"/><path class="c" d="M241.431,152.243l-17.6-12.843v25.784l17.6,12.843Z" transform="translate(-171.134 -100.74)"/><path class="c" d="M172.85,165.948v0L126.037,131.7v25.723l46.813,34.311v0l23.483-17.257V148.691Z" transform="translate(-126.036 -97.187)"/><g class="d" transform="translate(0 0)"><path class="e" d="M191.1,76.23v25.853L202.756,93.5V67.653Z" transform="translate(-156.042 -67.653)"/><path class="e" d="M126.036,131.7v25.723l17.537-12.892Z" transform="translate(-126.036 -97.187)"/><path class="e" d="M223.828,176.176l17.6,12.843V163.236l-17.6,12.936Z" transform="translate(-171.134 -111.732)"/></g></g><g transform="translate(445.943 101.786)"><path class="a" d="M721.772,131a2.094,2.094,0,1,1-2.036,2.093A2.063,2.063,0,0,1,721.772,131Zm0,3.8a1.705,1.705,0,1,0-1.618-1.7A1.646,1.646,0,0,0,721.772,134.8Zm-.7-2.793h.832a.632.632,0,0,1,.682.66.574.574,0,0,1-.4.574v.011a.641.641,0,0,1,.075.121l.413.8h-.448l-.4-.837h-.35v.837h-.407Zm.751,1.026a.333.333,0,0,0,.35-.367.322.322,0,0,0-.35-.35h-.344v.717Z" transform="translate(-719.736 -130.999)"/></g></g></svg>