<svg xmlns="http://www.w3.org/2000/svg" width="45.25" height="45.25" viewBox="0 0 45.25 45.25"><path d="M38.472,38.575A22.43,22.43,0,0,0,3.182,65.634L0,77.25l11.888-3.121A22.355,22.355,0,0,0,22.6,76.856h.01A22.281,22.281,0,0,0,38.472,38.575Zm-15.858,34.5a18.6,18.6,0,0,1-9.494-2.6l-.677-.4-7.05,1.848,1.879-6.878-.444-.707a18.673,18.673,0,1,1,34.634-9.909A18.845,18.845,0,0,1,22.615,73.078ZM32.836,59.12c-.556-.283-3.313-1.636-3.828-1.818s-.889-.283-1.263.283-1.444,1.818-1.778,2.2-.657.424-1.212.141c-3.293-1.646-5.454-2.939-7.626-6.666-.576-.99.576-.919,1.646-3.06a1.038,1.038,0,0,0-.051-.98c-.141-.283-1.263-3.04-1.727-4.161-.455-1.091-.919-.939-1.263-.96-.323-.02-.7-.02-1.071-.02a2.075,2.075,0,0,0-1.495.7,6.3,6.3,0,0,0-1.959,4.676c0,2.757,2.01,5.424,2.283,5.8s3.949,6.03,9.575,8.464c3.555,1.535,4.949,1.667,6.727,1.4,1.081-.162,3.313-1.353,3.778-2.667a4.686,4.686,0,0,0,.323-2.667C33.766,59.534,33.392,59.392,32.836,59.12Z" transform="translate(0 -32)"/></svg>